<?xml version="1.0" encoding="UTF-8" standalone="no"?>
<svg
   width="1531"
   height="566"
   version="1.1"
   id="svg58063"
   sodipodi:docname="logowithoutline.svg"
   xml:space="preserve"
   inkscape:version="1.2.1 (9c6d41e410, 2022-07-14)"
   xmlns:inkscape="http://www.inkscape.org/namespaces/inkscape"
   xmlns:sodipodi="http://sodipodi.sourceforge.net/DTD/sodipodi-0.dtd"
   xmlns="http://www.w3.org/2000/svg"
   xmlns:svg="http://www.w3.org/2000/svg"><defs
     id="defs58067" /><sodipodi:namedview
     id="namedview58065"
     pagecolor="#000000"
     bordercolor="#666666"
     borderopacity="1.0"
     inkscape:showpageshadow="2"
     inkscape:pageopacity="0"
     inkscape:pagecheckerboard="0"
     inkscape:deskcolor="#d1d1d1"
     showgrid="false"
     inkscape:zoom="0.78967995"
     inkscape:cx="333.67949"
     inkscape:cy="338.74483"
     inkscape:window-width="1366"
     inkscape:window-height="707"
     inkscape:window-x="0"
     inkscape:window-y="0"
     inkscape:window-maximized="1"
     inkscape:current-layer="svg58063" /><path
     style="fill:#ffffff;stroke:#fffffc;stroke-width:6.53333;stroke-dasharray:none;stroke-opacity:1"
     d="m 248.12211,483.30694 c 7.661,-2.583 13.848,-9.974 20,-15.081 13.725,-11.392 27.306,-22.985 40.91,-34.515 6.98,-5.916 14.716,-15.386 24.09,-17.075 18.818,-3.39 40.868,-0.329 60,-0.329 h 122 c 21.17,0 54.932,6.296 73.424,-5.939 19.166,-12.681 19.576,-32.347 19.576,-53.061 v -96 -117 c 0,-18.86 1.6,-39.0929 -14,-52.790095 -11.655,-10.2334 -26.401,-10.2099 -41,-10.2099 h -54 -247 c -29.026,0 -81.829,-10.5052 -97.879,21.285495 -9.98,19.7685 -5.121,48.2285 -5.121,69.7145 v 151 c 0,22.006 -5.455,52.672 5.728,72.576 11.776,20.957 34.37,20.424 55.272,20.424 7.121,0 16.276,-1.495 22.83,1.809 22.557,11.373 15.17,44.367 15.17,65.191 z"
     id="path57591" /><path
     style="fill:#a979ff;stroke:#fffffc;stroke-opacity:1;stroke-width:6.53333333;stroke-dasharray:none"
     d="m 678,133 v 171 43 l 1.028,16.218 L 690,364.001 722,364 v -53 l 1,-122 h 2 c 0.753,16.488 7.529,34.01 11.526,50 10.244,40.976 24.336,83.25 30.474,125 h 46 L 828.526,300 856,189 h 1 l 1.911,134 1.089,42 30,-0.999 10.972,-0.783 L 902,347 V 304 133 h -50 c -4.886,0 -15.358,-1.971 -19.437,1.028 -2.638,1.94 -3.154,7.029 -3.984,9.972 -2.706,9.603 -5.252,19.296 -7.579,29 -6.506,27.131 -14.312,53.98 -21.268,81 -2.501,9.713 -3.704,26.727 -10.732,34 L 779.735,251 760.265,177 749,133 h -71 m 677,6 c -12.1,7.406 -32.1,14.119 -41.4,24.785 -9.08,10.425 9.04,33.436 -12.6,33.211 -2.78,-0.029 -5.31,-0.354 -8,-0.996 -1.8,6.102 -4.08,28.214 0.03,33.397 4.14,5.226 15.3,-2.531 18.37,4.701 2.97,7.002 0.6,19.336 0.6,26.902 v 54 c 0,12.125 -0.04,26.238 6.35,37 10.19,17.155 35.12,18.089 52.65,15.246 4.83,-0.784 14.92,-1.313 17.97,-5.756 3.26,-4.763 -0.77,-18.96 -1.55,-24.49 -0.28,-2.032 -0.07,-5.587 -2.02,-6.879 -6.91,-4.58 -17.06,7.009 -25.12,-1.349 -5.73,-5.941 -4.28,-18.187 -4.28,-25.772 0,-22.881 -4.3,-50.748 1,-73 4.97,1.469 25.45,3.84 28.97,-0.603 4.5,-5.677 1.03,-25.201 1.03,-32.397 -7.08,0 -22.71,2.955 -28.68,-1.028 -3.9,-2.601 -2.32,-10.961 -2.32,-14.972 0,-9.666 -0.05,-19.334 0,-29 0.02,-4.433 1.51,-9.16 -1,-13 z"
     id="path57593"
     sodipodi:nodetypes="ccccccccccccccccccccccsccsccccccccscccssccccccsccccscc" /><path
     id="path2894"
     style="fill:#a979ff;stroke:#fffffc;stroke-opacity:1;stroke-width:6.53333333;stroke-dasharray:none"
     d="M 1018 193 C 1004.17 192.995 990.52799 193.65627 978 200.32227 C 932.94605 224.29524 923.34243 293.54004 949.06641 335 C 980.49437 385.65495 1075.6 379.21994 1090 317 C 1080.11 313.873 1058.3107 308.58803 1048.2207 311.33203 C 1044.5107 312.34303 1043.3393 318.071 1041.5293 321 C 1038.4793 325.939 1034.35 329.81014 1029 332.11914 C 1005.29 342.34013 977.14501 316.60398 983 292 C 991.27999 294.448 1001.39 293 1010 293 L 1064 293 C 1070.37 293 1086.2704 295.88231 1091.4004 291.82031 C 1095.9804 288.18832 1092.25 274.01899 1092 269 C 1090.66 241.78603 1077.15 214.92044 1053 201.43945 C 1042.68 195.68046 1029.72 193.004 1018 193 z M 1014.9414 226.58984 C 1015.8224 226.58205 1016.7002 226.60625 1017.5742 226.66211 C 1018.4482 226.71797 1019.3188 226.8067 1020.1816 226.92578 C 1021.0445 227.04486 1021.9005 227.19509 1022.748 227.37695 C 1023.5956 227.55882 1024.4335 227.77141 1025.2617 228.01562 C 1026.0899 228.25984 1026.9082 228.53567 1027.7129 228.8418 C 1028.5176 229.14792 1029.3089 229.48396 1030.0859 229.85156 C 1030.863 230.21916 1031.6257 230.61823 1032.3711 231.04688 C 1033.1165 231.47552 1033.8451 231.93458 1034.5547 232.42383 C 1035.2642 232.91308 1035.9554 233.433 1036.625 233.98242 C 1037.2946 234.53184 1037.9428 235.11155 1038.5684 235.7207 C 1039.1939 236.32986 1039.7956 236.96826 1040.373 237.63672 C 1040.9504 238.30518 1041.5022 239.00315 1042.0273 239.73047 C 1042.5525 240.45779 1043.0508 241.21425 1043.5195 242 C 1043.812 242.49075 1044.1707 243.17711 1044.5625 244.00781 C 1044.9543 244.83851 1045.3801 245.81329 1045.8027 246.87891 C 1046.2254 247.94452 1046.6461 249.10138 1047.0312 250.29688 C 1047.4164 251.49237 1047.7655 252.72692 1048.0449 253.94727 C 1048.3243 255.16761 1048.5335 256.37352 1048.6387 257.51367 C 1048.6913 258.08375 1048.7186 258.63763 1048.7148 259.16797 C 1048.7111 259.6983 1048.6761 260.20613 1048.6074 260.68359 C 1048.5388 261.16106 1048.4351 261.60807 1048.293 262.01953 C 1048.1508 262.431 1047.9702 262.80634 1047.7461 263.13867 C 1047.522 263.47101 1047.2561 263.75992 1046.9414 264 C 1046.6267 264.24008 1046.2634 264.43172 1045.8496 264.56641 C 1045.0377 264.83084 1044.1987 265.06297 1043.334 265.26758 C 1042.4693 265.47218 1041.5788 265.64828 1040.668 265.79883 C 1039.7571 265.94938 1038.8253 266.07547 1037.875 266.17773 C 1036.9247 266.28 1035.9557 266.35821 1034.9727 266.41797 C 1033.0065 266.53748 1030.9829 266.57839 1028.9258 266.5625 C 1026.8686 266.54661 1024.7783 266.47423 1022.6836 266.36914 C 1018.4942 266.15895 1014.2842 265.8172 1010.2656 265.52734 C 1008.2563 265.38241 1006.2946 265.24986 1004.4082 265.1543 C 1002.5218 265.05874 1000.71 265 999 265 C 998.00575 265 996.752 265.09545 995.37891 265.19531 C 994.00581 265.29517 992.51284 265.39898 991.04297 265.41992 C 990.30803 265.43039 989.57929 265.41974 988.87305 265.37695 C 988.1668 265.33417 987.48409 265.25901 986.8418 265.14062 C 986.1995 265.02224 985.59778 264.86086 985.05469 264.64453 C 984.78314 264.53637 984.52529 264.41419 984.28516 264.27734 C 984.04502 264.1405 983.8215 263.98862 983.61719 263.82031 C 983.45175 263.684 983.30596 263.52983 983.17578 263.35938 C 983.0456 263.18892 982.93189 263.00312 982.83398 262.80273 C 982.63818 262.40196 982.50453 261.94437 982.41992 261.44922 C 982.33531 260.95407 982.30001 260.42099 982.30273 259.86523 C 982.30546 259.30948 982.34592 258.73103 982.41211 258.14844 C 982.54448 256.98325 982.78041 255.79844 983.02344 254.72852 C 983.26647 253.65859 983.51694 252.7045 983.67969 252 C 983.84669 251.27738 984.03772 250.56004 984.25195 249.84961 C 984.46618 249.13918 984.70296 248.43549 984.96289 247.74023 C 985.22282 247.04498 985.50448 246.35874 985.80859 245.68164 C 986.11271 245.00454 986.43839 244.3376 986.78516 243.68164 C 987.13192 243.02568 987.50078 242.37989 987.88867 241.74805 C 988.27657 241.1162 988.68383 240.49733 989.11133 239.89258 C 989.53882 239.28783 989.9856 238.69772 990.45117 238.12305 C 990.91674 237.54838 991.40217 236.98887 991.9043 236.44727 C 992.40642 235.90566 992.92574 235.38252 993.46289 234.87695 C 994.00004 234.37139 994.55435 233.88451 995.125 233.41797 C 995.69565 232.95142 996.28214 232.50462 996.88477 232.08008 C 997.48739 231.65554 998.10716 231.25261 998.74023 230.87305 C 999.37331 230.49349 1000.0196 230.13628 1000.6816 229.80469 C 1001.3436 229.47309 1002.0196 229.16737 1002.709 228.88672 C 1003.3984 228.60607 1004.1011 228.35172 1004.8164 228.125 C 1005.5317 227.89828 1006.2604 227.69911 1007 227.5293 C 1007.8775 227.32792 1008.7578 227.1579 1009.6406 227.02148 C 1010.5234 226.88507 1011.409 226.78282 1012.293 226.71094 C 1013.1769 226.63905 1014.0604 226.59764 1014.9414 226.58984 z " /><path
     id="path2892"
     style="fill:#a979ff;stroke:#fffffc;stroke-opacity:1;stroke-width:6.53333333;stroke-dasharray:none"
     d="M 1197.1582 192.31641 C 1174.2496 192.09432 1151.0409 201.08902 1136.1797 218 C 1123.0097 232.99199 1118.0199 253.60702 1116.1699 273 C 1113.3499 302.49297 1123.29 337.16328 1148 355.07227 C 1190.39 385.79623 1254.56 365.60195 1271 317 C 1257.47 312.887 1240.14 311.117 1226 311 C 1215.82 353.86296 1154.36 329.59996 1163 292 C 1174.36 295.358 1189.17 293 1201 293 C 1224.52 293 1250.87 296.294 1274 292 C 1273.92 262.86203 1268.81 230.51581 1246 210.17383 C 1232.6125 198.23709 1214.976 192.48914 1197.1582 192.31641 z M 1195.9219 226.74023 C 1196.7878 226.74659 1197.6474 226.78085 1198.5 226.8457 C 1199.3526 226.91056 1200.1984 227.00536 1201.0352 227.12891 C 1201.872 227.25245 1202.6991 227.40547 1203.5176 227.58789 C 1204.336 227.77031 1205.1458 227.98118 1205.9434 228.22266 C 1206.741 228.46414 1207.5266 228.73638 1208.3008 229.03711 C 1209.075 229.33784 1209.8376 229.66717 1210.5859 230.02734 C 1211.3342 230.38752 1212.0692 230.77746 1212.7891 231.19727 C 1213.5089 231.61707 1214.2134 232.06725 1214.9023 232.54688 C 1215.5913 233.0265 1216.2645 233.53654 1216.9199 234.07617 C 1217.5754 234.61581 1218.2126 235.18532 1218.832 235.78516 C 1219.4515 236.38499 1220.0519 237.01556 1220.6328 237.67578 C 1221.2137 238.336 1221.7746 239.0253 1222.3145 239.74609 C 1222.8543 240.46689 1223.3729 241.21844 1223.8691 242 C 1224.1866 242.50112 1224.5653 243.19516 1224.9688 244.0293 C 1225.3722 244.86344 1225.802 245.83822 1226.2246 246.90234 C 1226.6473 247.96647 1227.0625 249.11947 1227.4375 250.31055 C 1227.8125 251.50162 1228.1476 252.73031 1228.4082 253.94531 C 1228.5385 254.55281 1228.6491 255.15584 1228.7383 255.75 C 1228.8275 256.34416 1228.8939 256.9301 1228.9336 257.49805 C 1228.9733 258.06599 1228.9869 258.61764 1228.9688 259.14648 C 1228.9506 259.67533 1228.9007 260.18133 1228.8164 260.6582 C 1228.7321 261.13508 1228.6139 261.58212 1228.4551 261.99414 C 1228.2963 262.40616 1228.0972 262.7829 1227.8555 263.11719 C 1227.6138 263.45148 1227.329 263.74265 1226.9961 263.98633 C 1226.6632 264.23001 1226.2821 264.42622 1225.8496 264.56641 C 1225.0534 264.82453 1224.2301 265.05216 1223.3828 265.25195 C 1222.5355 265.45175 1221.6654 265.62244 1220.7734 265.76953 C 1219.8815 265.91663 1218.9672 266.04061 1218.0371 266.14062 C 1217.107 266.24064 1216.161 266.31838 1215.1992 266.37695 C 1213.2756 266.49409 1211.2949 266.53248 1209.2832 266.51758 C 1207.2715 266.50268 1205.2278 266.43397 1203.1797 266.33203 C 1199.0834 266.12816 1194.9654 265.79564 1191.0332 265.51367 C 1189.0671 265.37269 1187.1484 265.24339 1185.3008 265.15039 C 1183.4532 265.05739 1181.6775 265 1180 265 C 1178.9875 265 1177.7297 265.09334 1176.3594 265.19141 C 1174.9891 265.28947 1173.5062 265.39261 1172.0449 265.41211 C 1171.3143 265.42186 1170.59 265.4102 1169.8867 265.36719 C 1169.1834 265.32418 1168.502 265.2487 1167.8594 265.13086 C 1167.2167 265.01302 1166.6111 264.85343 1166.0625 264.63867 C 1165.7882 264.53129 1165.5278 264.40918 1165.2832 264.27344 C 1165.0386 264.13769 1164.8102 263.98719 1164.5996 263.82031 C 1164.3996 263.66181 1164.2213 263.48665 1164.0605 263.29492 C 1163.8998 263.10319 1163.7575 262.89473 1163.6328 262.67383 C 1163.3835 262.23203 1163.2036 261.73718 1163.0801 261.20312 C 1162.9566 260.66907 1162.8898 260.09573 1162.8672 259.50195 C 1162.8446 258.90817 1162.8645 258.29284 1162.918 257.67188 C 1162.9714 257.05091 1163.0575 256.42617 1163.1621 255.81055 C 1163.2667 255.19492 1163.3906 254.58946 1163.5215 254.01172 C 1163.7832 252.85624 1164.0716 251.80875 1164.2891 251 C 1164.4803 250.28894 1164.6945 249.58287 1164.9297 248.88477 C 1165.1649 248.18666 1165.4213 247.49658 1165.6992 246.81445 C 1165.9771 246.13233 1166.2763 245.45803 1166.5957 244.79492 C 1166.9151 244.13181 1167.2557 243.47896 1167.6152 242.83789 C 1167.9748 242.19682 1168.3535 241.56911 1168.752 240.95312 C 1169.1504 240.33714 1169.5679 239.73437 1170.0039 239.14648 C 1170.44 238.5586 1170.8948 237.98448 1171.3672 237.42773 C 1171.8396 236.87099 1172.3304 236.33117 1172.8379 235.80859 C 1173.3454 235.28602 1173.8688 234.7803 1174.4102 234.29492 C 1174.9515 233.80954 1175.5101 233.34359 1176.084 232.89844 C 1176.6579 232.45329 1177.2484 232.02884 1177.8535 231.62695 C 1178.4587 231.22506 1179.0777 230.84583 1179.7129 230.49023 C 1180.348 230.13464 1180.9982 229.80432 1181.6621 229.49805 C 1182.326 229.19177 1183.0039 228.91017 1183.6953 228.65625 C 1184.3867 228.40233 1185.093 228.1751 1185.8105 227.97656 C 1186.5281 227.77802 1187.2575 227.60887 1188 227.46875 C 1188.8906 227.30075 1189.7792 227.16085 1190.6641 227.05078 C 1191.549 226.94071 1192.43 226.86054 1193.3066 226.80859 C 1194.1833 226.75664 1195.056 226.73388 1195.9219 226.74023 z " /><path
     id="path45411"
     style="fill:#a979ff;fill-opacity:1;stroke:none;stroke-width:6.53333;stroke-dasharray:none;stroke-opacity:1"
     d="m 358.42246,105.94133 c -10.46247,-0.16129 -20.45947,6.10463 -19.39067,21.26489 0.99981,14.18134 25.8014,35.81663 38.20402,35.49313 12.40265,-0.32353 19.66835,-7.52408 25.56559,-13.1656 6.04657,-5.78436 12.03264,-13.48312 12.24939,-22.32753 0.51324,-20.94373 -25.3778,-26.79259 -37.89027,-12.69701 -4.2028,-5.34055 -11.5795,-8.4576 -18.73806,-8.56788 z m 36.70634,9.32508 a 9.9395385,10.032553 0 0 1 9.94007,10.03214 9.9395385,10.032553 0 0 1 -9.94007,10.0321 9.9395385,10.032553 0 0 1 -9.94009,-10.0321 9.9395385,10.032553 0 0 1 9.94009,-10.03214 z m -36.39676,0.22174 a 9.9395385,10.032553 0 0 1 9.9401,10.0363 9.9395385,10.032553 0 0 1 -9.9401,10.03211 9.9395385,10.032553 0 0 1 -9.94007,-10.03211 9.9395385,10.032553 0 0 1 9.94007,-10.0363 z" /><g
     aria-label="Zip"
     transform="matrix(0.97345931,0,0,1.0272643,6.2822128,-1.4592542)"
     id="text678"
     style="font-size:269.102px;line-height:1.25;stroke-width:1.40157"><path
       d="M 336.78019,315.59818 H 193.88704 v -26.372 L 285.91992,157.0971 h -89.61097 v -33.63775 h 138.04933 v 26.372 l -92.03289,132.12908 h 94.4548 z"
       style="font-weight:bold"
       id="path730" /><path
       d="m 404.32492,168.66849 v 146.92969 h -40.0962 V 168.66849 Z"
       style="font-weight:bold"
       id="path732"
       sodipodi:nodetypes="ccccc" /><path
       d="m 528.11192,165.97747 q 24.75738,0 40.09619,19.37534 15.33882,19.10624 15.33882,56.51142 0,37.40518 -15.87702,57.04962 -15.87702,19.37534 -40.6344,19.37534 -15.87702,0 -25.29559,-5.65114 -9.41857,-5.92024 -15.33881,-13.18599 h -2.15282 q 2.15282,11.30228 2.15282,21.52815 v 59.20244 h -40.0962 V 168.66849 h 32.56134 l 5.65114,19.10624 h 1.88372 q 5.92024,-8.88037 15.87702,-15.33881 9.95677,-6.45845 25.83379,-6.45845 z m -12.9169,32.02314 q -15.60791,0 -22.06636,9.68767 -6.18935,9.68767 -6.72755,29.60122 v 4.30563 q 0,21.25906 6.18934,32.83044 6.45845,11.30228 23.14278,11.30228 13.7242,0 20.18264,-11.30228 6.72755,-11.57138 6.72755,-33.09954 0,-43.32542 -27.4484,-43.32542 z"
       style="font-weight:bold"
       id="path734" /></g></svg>
