<?xml version="1.0" encoding="UTF-8" standalone="no"?>
<!-- Created with Inkscape (http://www.inkscape.org/) -->

<svg
   width="148.8293mm"
   height="39.028316mm"
   viewBox="0 0 148.8293 39.028316"
   version="1.1"
   id="svg5"
   xml:space="preserve"
   inkscape:version="1.2.1 (9c6d41e410, 2022-07-14)"
   sodipodi:docname="drawing.svg"
   xmlns:inkscape="http://www.inkscape.org/namespaces/inkscape"
   xmlns:sodipodi="http://sodipodi.sourceforge.net/DTD/sodipodi-0.dtd"
   xmlns="http://www.w3.org/2000/svg"
   xmlns:svg="http://www.w3.org/2000/svg"><sodipodi:namedview
     id="namedview7"
     pagecolor="#ffffff"
     bordercolor="#666666"
     borderopacity="1.0"
     inkscape:showpageshadow="2"
     inkscape:pageopacity="0.0"
     inkscape:pagecheckerboard="0"
     inkscape:deskcolor="#d1d1d1"
     inkscape:document-units="mm"
     showgrid="false"
     inkscape:zoom="0.90028971"
     inkscape:cx="360.43953"
     inkscape:cy="450.41057"
     inkscape:window-width="1280"
     inkscape:window-height="995"
     inkscape:window-x="0"
     inkscape:window-y="0"
     inkscape:window-maximized="1"
     inkscape:current-layer="layer1" /><defs
     id="defs2" /><g
     inkscape:label="Layer 1"
     inkscape:groupmode="layer"
     id="layer1"
     transform="translate(-25.292786,-13.072626)"><g
       id="g2440"
       transform="translate(3.1489519,1.8907491)"
       style="fill:#d49dcf;fill-opacity:1"><g
         id="g2513"><g
           id="g2690"><path
             style="fill:#d49dcf;fill-opacity:1;stroke-width:0.264583"
             d="m 59.738994,36.020575 c 0,-7.785364 0.03374,-10.970286 0.07498,-7.077604 0.04124,3.892682 0.04124,10.262526 0,14.155208 -0.04124,3.892682 -0.07498,0.70776 -0.07498,-7.077604 z m 9.616699,6.698427 c 0.190995,-0.07643 0.419198,-0.06703 0.507119,0.02088 0.08792,0.08792 -0.06835,0.150452 -0.347266,0.138964 -0.308226,-0.0127 -0.370919,-0.07539 -0.159853,-0.159851 z m 3.175,0 c 0.190995,-0.07643 0.4192,-0.06703 0.507119,0.02088 0.08792,0.08792 -0.06835,0.150452 -0.347266,0.138964 -0.308226,-0.0127 -0.370919,-0.07539 -0.159853,-0.159851 z M 111.86199,28.215367 c 3e-5,-7.858125 0.0338,-11.034643 0.0749,-7.058929 0.0412,3.975713 0.0411,10.405088 -8e-5,14.287499 -0.0412,3.882411 -0.0749,0.629555 -0.0749,-7.22857 z m 58.89961,13.471702 c 0.0127,-0.308226 0.0754,-0.37092 0.15985,-0.159853 0.0764,0.190994 0.067,0.419197 -0.0209,0.507118 -0.0879,0.08792 -0.15045,-0.06835 -0.13897,-0.347265 z m -38.0497,-5.320681 c 0.25743,-0.06708 0.61462,-0.06267 0.79375,0.0098 0.17913,0.07248 -0.0315,0.127363 -0.46806,0.12197 -0.43656,-0.0054 -0.58312,-0.06469 -0.32569,-0.131773 z m 21.96041,0 c 0.25743,-0.06708 0.61462,-0.06267 0.79375,0.0098 0.17913,0.07248 -0.0315,0.127363 -0.46805,0.12197 -0.43657,-0.0054 -0.58313,-0.06469 -0.3257,-0.131773 z M 79.813008,32.051825 c 0,-1.091406 0.0467,-1.53789 0.103785,-0.992187 0.05708,0.545703 0.05708,1.438672 0,1.984375 -0.05708,0.545703 -0.103785,0.09922 -0.103785,-0.992188 z m 17.659015,0.374827 c 0.0127,-0.308226 0.07539,-0.370919 0.159851,-0.159853 0.07643,0.190995 0.06703,0.419198 -0.02088,0.507119 -0.08792,0.08792 -0.150452,-0.06835 -0.138964,-0.347266 z M 156.5048,30.332034 c 0.005,-0.436563 0.0647,-0.583126 0.13177,-0.325695 0.0671,0.257432 0.0627,0.61462 -0.01,0.79375 -0.0725,0.179131 -0.12736,-0.03149 -0.12197,-0.468055 z m -129.168245,0.0324 c 0,-0.05494 0.208359,-0.2633 0.46302,-0.463021 0.419644,-0.329107 0.429003,-0.319749 0.0999,0.0999 -0.345643,0.44073 -0.562915,0.580888 -0.562915,0.363125 z m 95.845305,-0.09677 c 1.12779,-0.0496 2.97326,-0.0496 4.10104,0 1.12779,0.0496 0.20506,0.09017 -2.05052,0.09017 -2.25557,0 -3.1783,-0.04058 -2.05052,-0.09017 z m 23.86024,0.0021 c 3.59421,-0.07322 4.09939,-0.137842 4.21842,-0.53958 0.10192,-0.343993 0.12185,-0.32607 0.0809,0.07277 -0.0517,0.503958 -0.25267,0.529662 -4.21842,0.539581 l -4.16412,0.0104 4.0832,-0.08319 z M 54.609525,13.641235 c 0.0127,-0.308224 0.07539,-0.370919 0.159851,-0.159852 0.07643,0.190996 0.06703,0.419199 -0.02088,0.507118 -0.08792,0.08792 -0.150452,-0.06835 -0.138964,-0.347266 z"
             id="path2456" /><path
             style="fill:#d49dcf;fill-opacity:1;stroke-width:0.264583"
             d="m 45.159019,39.989325 c 0,-1.382448 0.04459,-1.947995 0.0991,-1.256771 0.0545,0.691224 0.0545,1.822318 0,2.513542 -0.0545,0.691224 -0.0991,0.125677 -0.0991,-1.256771 z m 82.454611,-1.951979 c 0,-0.05494 0.20836,-0.2633 0.46302,-0.463021 0.41965,-0.329107 0.42901,-0.319749 0.0999,0.0999 -0.34564,0.44073 -0.56292,0.580887 -0.56292,0.363125 z M 31.040721,35.126929 c 0,-0.05494 0.208359,-0.2633 0.463021,-0.463021 0.419645,-0.329107 0.429003,-0.319749 0.0999,0.0999 -0.345644,0.44073 -0.562917,0.580888 -0.562917,0.363125 z M 142.73666,34.168492 c 0,-0.363802 0.06,-0.51263 0.13345,-0.330729 0.0734,0.181901 0.0734,0.479557 0,0.661458 -0.0734,0.181901 -0.13345,0.03307 -0.13345,-0.330729 z m -40.23755,-0.15434 c 0.0127,-0.308226 0.0754,-0.370919 0.15985,-0.159853 0.0764,0.190995 0.067,0.419198 -0.0209,0.507119 -0.0879,0.08792 -0.15045,-0.06835 -0.13896,-0.347266 z m 25.34536,-7.452431 c -0.32911,-0.419644 -0.31975,-0.429002 0.0999,-0.0999 0.44073,0.345644 0.58089,0.562916 0.36313,0.562916 -0.0549,0 -0.2633,-0.208359 -0.46302,-0.463021 z M 64.986671,23.320575 c 0,-0.800364 0.0496,-1.127786 0.110223,-0.727604 0.06062,0.400183 0.06062,1.055026 0,1.455209 -0.06062,0.400182 -0.110223,0.07276 -0.110223,-0.727605 z m 12.198701,0.727605 -0.504028,-0.595313 0.595312,0.504028 c 0.559446,0.473662 0.715762,0.686597 0.504029,0.686597 -0.05021,0 -0.318098,-0.267891 -0.595313,-0.595312 z M 53.216111,12.291918 c 0.190994,-0.07643 0.419197,-0.06703 0.507119,0.02089 0.08792,0.08792 -0.06835,0.150453 -0.347266,0.138965 -0.308226,-0.0127 -0.370919,-0.07539 -0.159853,-0.159853 z"
             id="path2454" /><path
             style="fill:#d49dcf;fill-opacity:1;stroke-width:0.264583"
             d="m 22.14386,39.59245 c 6.09e-4,-1.600729 0.04417,-2.22146 0.09684,-1.379403 0.05266,0.842058 0.05218,2.151746 -0.0011,2.910417 -0.05326,0.758672 -0.09635,0.06972 -0.09576,-1.531014 z M 83.816153,28.215367 c 4e-5,-7.858125 0.03376,-11.034643 0.07494,-7.058929 0.04117,3.975713 0.04114,10.405088 -7.7e-5,14.287499 -0.04122,3.882411 -0.07491,0.629555 -0.07486,-7.22857 z M 161.53188,38.7987 c 0.005,-0.436562 0.0647,-0.583126 0.13177,-0.325694 0.0671,0.257432 0.0627,0.614619 -0.01,0.79375 -0.0725,0.179131 -0.12737,-0.03149 -0.12197,-0.468056 z m -11.95783,-0.761354 c 0,-0.05494 0.20836,-0.2633 0.46302,-0.463021 0.41964,-0.329107 0.429,-0.319749 0.0999,0.0999 -0.34565,0.44073 -0.56292,0.580887 -0.56292,0.363125 z M 33.372179,37.410082 c 2.228186,-0.0443 5.800061,-0.0442 7.9375,2.17e-4 2.137436,0.04442 0.314375,0.08067 -4.05125,0.08055 -4.365625,-1.19e-4 -6.114438,-0.03646 -3.88625,-0.08077 z m 87.404061,-3.24159 c 0,-0.363802 0.0601,-0.51263 0.13345,-0.330729 0.0734,0.181901 0.0734,0.479557 0,0.661458 -0.0734,0.181901 -0.13345,0.03307 -0.13345,-0.330729 z m 13.76814,-3.836458 c 0.005,-0.436563 0.0647,-0.583126 0.13177,-0.325695 0.0671,0.257432 0.0627,0.61462 -0.01,0.79375 -0.0725,0.179131 -0.12737,-0.03149 -0.12197,-0.468055 z M 44.628387,16.309117 c -7.94e-4,-1.309687 0.04393,-1.878827 0.09942,-1.264754 0.05549,0.614073 0.05615,1.685635 0.0016,2.38125 -0.0548,0.695615 -0.100206,0.193192 -0.10101,-1.116496 z m 8.587724,-5.075532 c 0.190994,-0.07643 0.419197,-0.06703 0.507119,0.02089 0.08792,0.08792 -0.06835,0.150453 -0.347266,0.138964 -0.308226,-0.01269 -0.370919,-0.07539 -0.159853,-0.159852 z"
             id="path2452" /><path
             style="fill:#d49dcf;fill-opacity:1;stroke-width:0.264583"
             d="m 98.00119,32.426652 c 0.0127,-0.308226 0.07539,-0.370919 0.159851,-0.159853 0.07643,0.190995 0.06703,0.419198 -0.02088,0.507119 -0.08792,0.08792 -0.150453,-0.06835 -0.138965,-0.347266 z m -7.14375,-6.085417 c 0.0127,-0.308224 0.07539,-0.370919 0.159851,-0.159852 0.07643,0.190996 0.06703,0.419199 -0.02088,0.507118 -0.08792,0.08792 -0.150452,-0.06835 -0.138964,-0.347266 z m 68.57234,-4.533085 c 0.40018,-0.06062 1.05502,-0.06062 1.45521,0 0.40018,0.06062 0.0728,0.110223 -0.72761,0.110223 -0.80036,0 -1.12779,-0.0496 -0.7276,-0.110223 z m 8.20208,-0.0032 c 0.5457,-0.05708 1.43867,-0.05708 1.98437,0 0.54571,0.05708 0.0992,0.103786 -0.99218,0.103786 -1.09141,0 -1.53789,-0.0467 -0.99219,-0.103786 z M 124.2402,21.278984 c 0.40018,-0.06062 1.05502,-0.06062 1.4552,0 0.40019,0.06062 0.0728,0.110223 -0.7276,0.110223 -0.80036,0 -1.12779,-0.0496 -0.7276,-0.110223 z m 21.96041,0 c 0.40018,-0.06062 1.05503,-0.06062 1.45521,0 0.40018,0.06062 0.0728,0.110223 -0.7276,0.110223 -0.80037,0 -1.12779,-0.0496 -0.72761,-0.110223 z M 35.803221,20.045681 c 0,-0.05494 0.208359,-0.263302 0.463021,-0.463021 0.419645,-0.329108 0.429003,-0.319749 0.0999,0.0999 -0.345644,0.440729 -0.562917,0.580887 -0.562917,0.363126 z m 57.964636,-0.848196 c 0.0127,-0.308224 0.07539,-0.370919 0.15985,-0.159852 0.07643,0.190996 0.06703,0.419199 -0.02088,0.507118 -0.08792,0.08792 -0.150453,-0.06835 -0.138965,-0.347266 z m -46.215816,-3.615972 -0.504029,-0.595312 0.595312,0.504028 c 0.559446,0.473662 0.715762,0.686597 0.504029,0.686597 -0.05021,0 -0.318098,-0.267891 -0.595312,-0.595313 z m -0.880015,-1.940278 c 0.0127,-0.308224 0.07539,-0.370919 0.159851,-0.159852 0.07643,0.190996 0.06703,0.419199 -0.02088,0.507118 -0.08792,0.08792 -0.150453,-0.06835 -0.138965,-0.347266 z m 8.995833,0 c 0.0127,-0.308224 0.07539,-0.370919 0.15985,-0.159852 0.07643,0.190996 0.06703,0.419199 -0.02087,0.507118 -0.08792,0.08792 -0.150453,-0.06835 -0.138965,-0.347266 z"
             id="path2450" /><path
             style="fill:#d49dcf;fill-opacity:1;stroke-width:0.264583"
             d="m 61.137074,50.113013 c 0.763984,-0.05345 2.01414,-0.05345 2.778125,0 0.763984,0.05345 0.138906,0.09718 -1.389063,0.09718 -1.527968,0 -2.153047,-0.04373 -1.389062,-0.09718 z M 170.52771,40.3862 c 0.005,-0.436563 0.0647,-0.583126 0.13177,-0.325694 0.0671,0.257431 0.0627,0.614619 -0.01,0.79375 -0.0725,0.179131 -0.12736,-0.03149 -0.12197,-0.468056 z m -40.46165,-4.284395 c 0.25744,-0.06708 0.61462,-0.06267 0.79375,0.0098 0.17913,0.07248 -0.0315,0.127362 -0.46805,0.12197 -0.43656,-0.0054 -0.58313,-0.06469 -0.3257,-0.131773 z m 21.96042,0 c 0.25743,-0.06708 0.61462,-0.06267 0.79375,0.0098 0.17913,0.07248 -0.0315,0.127362 -0.46806,0.12197 -0.43656,-0.0054 -0.58312,-0.06469 -0.32569,-0.131773 z M 98.530357,30.574569 c 0.0127,-0.308226 0.07539,-0.370919 0.15985,-0.159853 0.07643,0.190995 0.06703,0.419198 -0.02088,0.507119 -0.08792,0.08792 -0.150453,-0.06835 -0.138965,-0.347266 z m 1.058333,-3.704167 c 0.0127,-0.308225 0.07539,-0.37092 0.15985,-0.159853 0.07643,0.190996 0.06703,0.419199 -0.02088,0.507118 -0.08792,0.08792 -0.150453,-0.06835 -0.138965,-0.347265 z m 4.7625,0 c 0.0127,-0.308225 0.0754,-0.37092 0.15985,-0.159853 0.0764,0.190996 0.067,0.419199 -0.0209,0.507118 -0.0879,0.08792 -0.15045,-0.06835 -0.13896,-0.347265 z m 48.50501,-3.615972 -0.50403,-0.595313 0.59532,0.504028 c 0.32742,0.277215 0.59531,0.545106 0.59531,0.595313 0,0.211733 -0.21294,0.05542 -0.6866,-0.504028 z M 49.892283,21.80318 c 0.691224,-0.0545 1.822317,-0.0545 2.513541,0 0.691224,0.0545 0.125677,0.0991 -1.256771,0.0991 -1.382447,0 -1.947994,-0.04459 -1.25677,-0.0991 z m 0.198437,-4.323042 c -0.654844,-0.442049 -1.641141,-1.241889 -2.191771,-1.777422 -0.886502,-0.862195 -0.994346,-1.105053 -0.941768,-2.120782 0.109264,-2.110808 2.214125,-3.08168 3.722213,-1.716879 0.459952,0.41625 0.539173,0.41605 1.24881,-0.0031 2.416111,-1.427233 4.75493,0.959958 3.254353,3.32166 -0.430048,0.676834 -3.363505,3.115829 -3.734609,3.105105 -0.09163,-0.0026 -0.702384,-0.36649 -1.357228,-0.808539 z m 4.560012,-2.996567 c 0.359087,-0.537786 0.206811,-1.395819 -0.33469,-1.885871 -1.143746,-1.035076 -3.045227,0.594713 -2.199598,1.885308 0.217845,0.332472 0.595315,0.65018 0.838825,0.706019 0.495966,0.11373 1.399505,-0.262218 1.695463,-0.705456 z m -4.514699,0.197039 c 0.549473,-0.497265 0.640815,-1.680573 0.166354,-2.155034 -0.449533,-0.449534 -1.685108,-0.393761 -2.177143,0.09827 -1.333759,1.33376 0.611296,3.323284 2.010789,2.05676 z"
             id="path2448" /><path
             style="fill:#d49dcf;fill-opacity:1;stroke-width:0.264583"
             d="m 54.122338,32.27231 c -0.04848,-7.889089 -0.138563,-10.261097 -0.393597,-10.364006 -0.259043,-0.104526 -0.257244,-0.13798 0.0083,-0.15434 0.18647,-0.01149 0.39629,0.128315 0.466267,0.310676 0.06998,0.18236 0.09453,4.855563 0.05456,10.384896 l -0.07268,10.053331 z M 169.1036,38.221085 c 0.191,-0.07643 0.41921,-0.06703 0.50712,0.02088 0.0879,0.08792 -0.0683,0.150453 -0.34726,0.138965 -0.30823,-0.0127 -0.37092,-0.07539 -0.15986,-0.159851 z m -25.10583,-0.811447 -0.64143,-0.727605 0.7276,0.641432 c 0.40019,0.352791 0.72761,0.680212 0.72761,0.727605 0,0.207507 -0.21426,0.03862 -0.81378,-0.641432 z M 24.426138,34.068596 c 0,-0.05494 0.208359,-0.2633 0.463021,-0.463021 0.419644,-0.329107 0.429002,-0.319749 0.0999,0.0999 -0.345644,0.44073 -0.562916,0.580887 -0.562916,0.363125 z m 9.525,-2.645834 c 0,-0.05494 0.208359,-0.2633 0.46302,-0.46302 0.419645,-0.329108 0.429004,-0.319749 0.0999,0.0999 -0.345644,0.440729 -0.562917,0.580887 -0.562917,0.363124 z M 156.20952,29.251653 c 0.0127,-0.308227 0.0754,-0.37092 0.15985,-0.159854 0.0764,0.190995 0.067,0.419198 -0.0209,0.507119 -0.0879,0.08792 -0.15046,-0.06835 -0.13897,-0.347265 z m -52.3875,-0.529167 c 0.0127,-0.308226 0.0754,-0.370919 0.15985,-0.159853 0.0764,0.190994 0.067,0.419197 -0.0209,0.507118 -0.0879,0.08792 -0.15045,-0.06835 -0.13897,-0.347265 z m -3.70416,-3.704167 c 0.0127,-0.308225 0.0754,-0.37092 0.15985,-0.159853 0.0764,0.190996 0.067,0.419199 -0.0209,0.507118 -0.0879,0.08792 -0.15045,-0.06835 -0.13896,-0.347265 z m -38.971917,-3.21603 c 0.768863,-0.05361 1.959488,-0.05305 2.645833,0.0012 0.686345,0.0543 0.05728,0.09817 -1.397931,0.09748 -1.455209,-6.88e-4 -2.016766,-0.04512 -1.247902,-0.09874 z m 9.51613,-0.520522 c 0.327422,-0.06306 0.863203,-0.06306 1.190625,0 0.327422,0.06306 0.05953,0.114662 -0.595312,0.114662 -0.654844,0 -0.922735,-0.0516 -0.595313,-0.114662 z"
             id="path2446" /><path
             style="fill:#b563d4;fill-opacity:1;stroke-width:0.264583"
             d="m 122.71884,42.515781 c -3.14724,-0.77424 -5.59569,-2.996983 -6.42611,-5.833748 -1.09418,-3.737758 -1.09716,-5.858898 -0.0126,-8.995833 0.83862,-2.425632 2.53899,-4.32043 4.87953,-5.437466 1.37441,-0.655942 1.96114,-0.780242 3.683,-0.780242 3.21299,0 5.05989,0.726979 7.04593,2.773423 1.70303,1.754827 2.47426,3.772623 2.75751,7.214598 l 0.17963,2.182812 h -7.04562 c -7.91593,0 -7.40668,-0.162158 -6.55228,2.086435 0.85522,2.250784 1.8443,2.940648 4.21608,2.940648 1.74614,0 2.66659,-0.510463 3.36871,-1.868217 0.32065,-0.620057 0.53051,-0.741551 1.1192,-0.647899 0.3985,0.06339 1.38041,0.184182 2.18203,0.268415 2.12366,0.223155 2.27149,0.373332 1.62155,1.647314 -1.92673,3.77671 -6.40295,5.58473 -11.01654,4.44976 z m 6.7454,-12.514477 c -0.004,-1.112607 -0.64221,-2.591539 -1.50099,-3.475799 -0.8833,-0.909503 -1.01403,-0.955971 -2.68954,-0.955971 -2.56149,0 -3.90378,1.140898 -4.19049,3.561791 l -0.15788,1.333 h 4.27019 c 3.89102,0 4.27005,-0.04111 4.26871,-0.463021 z m 15.21502,12.513622 c -3.17343,-0.782735 -5.59667,-2.981796 -6.42752,-5.832893 -1.09285,-3.750167 -1.09547,-5.8597 -0.0112,-8.995833 0.94868,-2.743959 3.10555,-4.940301 5.77728,-5.882995 1.18154,-0.416896 4.508,-0.428533 5.92242,-0.02072 1.22295,0.352606 2.99886,1.473961 4.03064,2.545037 1.42751,1.481895 2.69105,5.328257 2.73302,8.319615 l 0.0139,0.992188 h -7.03472 -7.03471 l 0.18656,1.104217 c 0.44409,2.628583 1.92668,3.922866 4.49361,3.922866 1.82757,0 2.73208,-0.490585 3.44448,-1.868217 0.32064,-0.620057 0.53051,-0.741551 1.11919,-0.647899 0.3985,0.06339 1.38042,0.184182 2.18203,0.268415 2.17706,0.228764 2.27266,0.353494 1.43875,1.876996 -0.39039,0.713211 -0.96887,1.546728 -1.28552,1.852258 -2.41335,2.328611 -6.04936,3.229965 -9.54821,2.366965 z m 6.64083,-13.136707 c -0.41177,-2.575081 -1.79229,-3.808708 -4.25958,-3.806342 -2.38746,0.0023 -3.82104,1.277757 -4.04399,3.597966 l -0.12438,1.294482 h 4.30081 4.30081 z m 13.45272,13.175294 c -1.33045,-0.518718 -2.15862,-1.17144 -2.65352,-2.091364 -0.4032,-0.749491 -0.4833,-1.811383 -0.57949,-7.68272 l -0.11161,-6.81302 h -1.29686 -1.29687 v -1.984375 -1.984375 h 1.32292 1.32292 V 20.0313 c 0,-2.190312 0.007,-2.200269 2.64583,-3.613595 0.65484,-0.350765 1.25016,-0.697286 1.32292,-0.770046 0.0728,-0.07276 0.40018,-0.282129 0.7276,-0.465263 l 0.59531,-0.332971 v 3.574117 3.574117 h 1.85209 1.85208 v 1.984375 1.984375 h -1.85208 -1.85209 v 5.539025 c 0,3.046465 0.11612,5.844434 0.25804,6.217708 0.21894,0.575855 0.42201,0.678683 1.34031,0.678683 0.59525,0 1.31257,-0.123251 1.59405,-0.273891 0.4784,-0.256035 0.51201,-0.174088 0.51538,1.25677 0.002,0.841865 0.0731,1.789758 0.15804,2.10643 0.13096,0.488278 -2.5e-4,0.621525 -0.86351,0.876904 -1.51541,0.448307 -4.08309,0.543525 -5.00146,0.185475 z m -91.448367,-0.09909 c 0.190995,-0.07643 0.4192,-0.06703 0.507119,0.02087 0.08792,0.08792 -0.06835,0.150453 -0.347266,0.138965 -0.308226,-0.0127 -0.370919,-0.07539 -0.159853,-0.159851 z M 83.957385,28.215367 V 14.060159 h 4.215503 c 4.732753,0 4.154,-0.256408 4.777629,2.116667 0.133844,0.509323 0.487865,1.759479 0.786706,2.778125 0.726771,2.477292 0.952185,3.284141 1.700128,6.085416 2.323883,8.703656 2.399607,8.92067 2.676043,7.669178 0.09598,-0.434507 0.270079,-1.087668 0.386895,-1.45147 0.116814,-0.363802 0.359072,-1.197239 0.538345,-1.852083 0.179274,-0.654844 0.417399,-1.488281 0.529167,-1.852083 0.268512,-0.874014 0.647259,-2.244492 1.462389,-5.291667 1.04096,-3.891337 1.22951,-4.580386 1.44803,-5.291666 0.11177,-0.363802 0.35514,-1.167474 0.54083,-1.785938 l 0.33762,-1.124479 h 4.19098 4.19098 v 14.155208 14.155208 h -2.64583 -2.64583 V 31.213977 c 0,-6.136127 -0.0699,-11.086654 -0.15543,-11.001168 -0.0855,0.08548 -0.25376,0.551813 -0.37395,1.036284 -0.12019,0.484472 -0.40743,1.565467 -0.63832,2.402212 -0.96958,3.513725 -1.29864,4.742224 -2.17926,8.135937 -1.13312,4.366736 -1.89522,7.239661 -2.24598,8.466666 -0.14559,0.509323 -0.32984,1.193933 -0.40944,1.521354 -0.13774,0.566584 -0.26879,0.595313 -2.715476,0.595313 h -2.57075 l -0.283112,-1.389063 c -0.155713,-0.763984 -0.532808,-2.311796 -0.837991,-3.439583 -0.608619,-2.249127 -1.223018,-4.558546 -2.234869,-8.40052 -0.364093,-1.382448 -0.858973,-3.227917 -1.09973,-4.101042 -0.240761,-0.873125 -0.636548,-2.361406 -0.879531,-3.307292 -0.43543,-1.695042 -0.44278,-1.55892 -0.510804,9.458854 l -0.06902,11.178646 h -2.642959 -2.642963 z m -4.456141,6.217708 c 0,-0.363802 0.06006,-0.51263 0.133453,-0.330729 0.0734,0.181901 0.0734,0.479557 0,0.661458 -0.0734,0.181901 -0.133453,0.03307 -0.133453,-0.330729 z m 0,-4.7625 c 0,-0.363802 0.06006,-0.51263 0.133453,-0.330729 0.0734,0.181901 0.0734,0.479557 0,0.661458 -0.0734,0.181901 -0.133453,0.03307 -0.133453,-0.330729 z"
             id="path2444" /><path
             style="fill:#130d12;fill-opacity:1;stroke-width:0.264583"
             d="M 59.880303,36.020575 V 21.997659 h 2.513542 2.513541 v 1.45597 1.455971 l 0.966573,-1.06988 c 2.47359,-2.737968 6.886276,-3.174921 9.965994,-0.986852 1.193281,0.8478 2.708307,2.946156 3.232716,4.477409 0.704969,2.058491 0.703503,7.507118 -0.0026,9.351756 -1.326335,3.465349 -3.009937,5.056728 -6.290116,5.945558 -2.134034,0.57826 -5.021321,-0.238945 -6.748169,-1.909971 l -0.859896,-0.832099 v 5.078984 5.078986 H 62.526009 59.880176 V 36.020575 Z m 12.346738,1.969048 c 1.598676,-1.219372 2.049905,-2.48965 2.062234,-5.805506 0.0096,-2.587776 -0.06251,-3.057073 -0.650639,-4.233333 -0.506323,-1.012645 -0.93834,-1.462539 -1.842,-1.918229 -1.490967,-0.751852 -2.49795,-0.751852 -3.988917,0 -0.830262,0.418677 -1.375486,0.948582 -1.837565,1.785937 -0.58192,1.054523 -0.657209,1.508196 -0.658643,3.96875 -0.0021,3.420623 0.328078,4.430456 1.900544,5.814597 1.09987,0.968142 1.34158,1.064569 2.668545,1.064569 1.157571,0 1.642509,-0.139872 2.346441,-0.676785 z M 22.309472,39.65704 v -2.713535 l 3.170315,-3.92693 c 1.743674,-2.159812 3.499846,-4.315007 3.902605,-4.789324 0.402757,-0.474316 0.911088,-1.087747 1.129623,-1.36318 2.078437,-2.619588 2.60327,-3.271048 3.299394,-4.095448 1.41206,-1.672269 2.647209,-3.219033 2.864855,-3.587632 0.175606,-0.297402 -0.892884,-0.358332 -6.283854,-0.358332 h -6.495439 v -2.38125 -2.38125 h 10.31875 10.318749 v 2.342009 c 0,2.191204 -0.04685,2.391764 -0.727604,3.114723 -0.400182,0.424993 -1.053224,1.206252 -1.451205,1.736131 -0.397981,0.529879 -0.874231,1.12271 -1.058333,1.317402 -0.184102,0.194693 -0.806945,0.949139 -1.384094,1.676548 -0.577148,0.727409 -1.119833,1.382093 -1.205962,1.454853 -0.08613,0.07276 -0.32829,0.381465 -0.538136,0.68601 -0.396952,0.576084 -1.914737,2.44168 -3.30486,4.062189 -0.988431,1.152245 -4.877544,5.966849 -5.37718,6.65679 -0.35405,0.4889 -0.166457,0.501261 7.60677,0.501261 h 7.969771 v 2.38125 2.38125 H 33.686554 22.309472 Z M 48.767804,32.184117 V 21.997659 h 2.645833 2.645833 v 10.186458 10.186458 h -2.645833 -2.645833 z"
             id="path2442" /></g></g></g></g></svg>
