<?xml version="1.0" encoding="UTF-8" standalone="no"?>
<!-- Created with Inkscape (http://www.inkscape.org/) -->

<svg
   width="210mm"
   height="297mm"
   viewBox="0 0 210 297"
   version="1.1"
   id="svg2561"
   inkscape:version="1.2.1 (9c6d41e410, 2022-07-14)"
   sodipodi:docname="signup.svg"
   inkscape:export-filename="signup.png"
   inkscape:export-xdpi="96"
   inkscape:export-ydpi="96"
   xmlns:inkscape="http://www.inkscape.org/namespaces/inkscape"
   xmlns:sodipodi="http://sodipodi.sourceforge.net/DTD/sodipodi-0.dtd"
   xmlns="http://www.w3.org/2000/svg"
   xmlns:svg="http://www.w3.org/2000/svg">
  <sodipodi:namedview
     id="namedview2563"
     pagecolor="#ffffff"
     bordercolor="#666666"
     borderopacity="1.0"
     inkscape:showpageshadow="2"
     inkscape:pageopacity="0.0"
     inkscape:pagecheckerboard="0"
     inkscape:deskcolor="#d1d1d1"
     inkscape:document-units="mm"
     showgrid="false"
     inkscape:zoom="1.3505331"
     inkscape:cx="428.34937"
     inkscape:cy="703.79615"
     inkscape:window-width="1280"
     inkscape:window-height="995"
     inkscape:window-x="0"
     inkscape:window-y="0"
     inkscape:window-maximized="1"
     inkscape:current-layer="layer1" />
  <defs
     id="defs2558">
    <rect
       x="582.13701"
       y="833.81425"
       width="400.88914"
       height="298.98494"
       id="rect3585" />
  </defs>
  <g
     inkscape:label="Layer 1"
     inkscape:groupmode="layer"
     id="layer1">
    <text
       xml:space="preserve"
       style="font-style:normal;font-weight:normal;font-size:10.5833px;line-height:1.25;font-family:sans-serif;fill:#000000;fill-opacity:1;stroke:none;stroke-width:0.264583"
       x="81.562141"
       y="45.325668"
       id="text2784"><tspan
         sodipodi:role="line"
         id="tspan2782"
         style="stroke-width:0.264583"
         x="81.562141"
         y="45.325668">Sign-Up</tspan></text>
    <g
       id="g8224">
      <rect
         style="fill:#f5f5f5;fill-opacity:1;stroke:#000000;stroke-width:0.665001"
         id="rect3519"
         width="80.229858"
         height="13.233128"
         x="60.778107"
         y="118.08318" />
      <text
         xml:space="preserve"
         style="font-style:normal;font-weight:normal;font-size:4.23333px;line-height:1.25;font-family:sans-serif;fill:#000000;fill-opacity:1;stroke:none;stroke-width:0.264583"
         x="60.034973"
         y="52.894249"
         id="text3531"><tspan
           sodipodi:role="line"
           id="tspan3529"
           style="font-size:4.23333px;stroke-width:0.264583"
           x="60.034973"
           y="52.894249">Name</tspan></text>
      <text
         xml:space="preserve"
         style="font-style:normal;font-weight:normal;font-size:4.23333px;line-height:1.25;font-family:sans-serif;fill:#000000;fill-opacity:1;stroke:none;stroke-width:0.264583"
         x="60.034973"
         y="73.857628"
         id="text3535"><tspan
           sodipodi:role="line"
           id="tspan3533"
           style="font-size:4.23333px;stroke-width:0.264583"
           x="60.034973"
           y="73.857628">Email</tspan></text>
      <text
         xml:space="preserve"
         style="font-style:normal;font-weight:normal;font-size:4.23333px;line-height:1.25;font-family:sans-serif;fill:#000000;fill-opacity:1;stroke:none;stroke-width:0.264583"
         x="60.034973"
         y="94.842178"
         id="text3539"><tspan
           sodipodi:role="line"
           id="tspan3537"
           style="font-size:4.23333px;stroke-width:0.264583"
           x="60.034973"
           y="94.842178">Date of Birth</tspan></text>
      <text
         xml:space="preserve"
         style="font-size:4.23333px;line-height:1.25;font-family:sans-serif;stroke-width:0.264583"
         x="60.034973"
         y="115.80556"
         id="text3543"><tspan
           sodipodi:role="line"
           id="tspan3541"
           style="stroke-width:0.264583"
           x="60.034973"
           y="115.80556">Phone Number</tspan></text>
      <rect
         style="fill:#f5f5f5;fill-opacity:1;stroke:#000000;stroke-width:0.665001"
         id="rect3525"
         width="80.229858"
         height="13.233128"
         x="60.778107"
         y="159.91258" />
      <rect
         style="fill:#f5f5f5;fill-opacity:1;stroke:#000000;stroke-width:0.665001"
         id="rect3527"
         width="80.229858"
         height="13.233128"
         x="60.778107"
         y="180.89713" />
      <text
         xml:space="preserve"
         style="font-size:4.23333px;line-height:1.25;font-family:sans-serif;stroke-width:0.264583"
         x="60.034973"
         y="157.63495"
         id="text3547"><tspan
           sodipodi:role="line"
           id="tspan3545"
           style="stroke-width:0.264583"
           x="60.034973"
           y="157.63495">Password</tspan></text>
      <text
         xml:space="preserve"
         style="font-size:4.23333px;line-height:1.25;font-family:sans-serif;stroke-width:0.264583"
         x="60.187374"
         y="178.61949"
         id="text3551"><tspan
           sodipodi:role="line"
           id="tspan3549"
           style="stroke-width:0.264583"
           x="60.187374"
           y="178.61949">Confirm Password</tspan></text>
      <g
         id="g3608"
         transform="translate(-0.26937492,0.1410005)">
        <rect
           style="fill:#f5f5f5;fill-opacity:1;stroke:#000000;stroke-width:0.665001"
           id="rect2838"
           width="80.229858"
           height="13.233128"
           x="61.047482"
           y="55.030876" />
        <text
           xml:space="preserve"
           style="font-size:7.05556px;line-height:1.25;font-family:sans-serif;stroke-width:0.264583"
           x="63.340248"
           y="63.903488"
           id="text3559"><tspan
             sodipodi:role="line"
             id="tspan3557"
             style="font-size:7.05556px;stroke-width:0.264583"
             x="63.340248"
             y="63.903488">Saul Goodman</tspan></text>
      </g>
      <g
         id="g3603"
         transform="translate(-0.26937492,0.42299958)">
        <rect
           style="fill:#f5f5f5;fill-opacity:1;stroke:#000000;stroke-width:0.665001"
           id="rect3517"
           width="80.229858"
           height="13.233128"
           x="61.047482"
           y="75.712257" />
        <text
           xml:space="preserve"
           style="font-size:7.05556px;line-height:1.25;font-family:sans-serif;stroke-width:0.264583"
           x="62.108154"
           y="84.215408"
           id="text3563"><tspan
             sodipodi:role="line"
             id="tspan3561"
             style="font-size:7.05556px;stroke-width:0.264583"
             x="62.108154"
             y="84.215408">johncena@hotmail.net</tspan></text>
      </g>
      <g
         id="g3598"
         transform="translate(-0.26937492,0.70499375)">
        <rect
           style="fill:#f5f5f5;fill-opacity:1;stroke:#000000;stroke-width:0.665001"
           id="rect3521"
           width="80.229858"
           height="13.233128"
           x="61.047482"
           y="96.41481" />
        <text
           xml:space="preserve"
           style="font-size:7.05556px;line-height:1.25;font-family:sans-serif;stroke-width:0.264583"
           x="62.548946"
           y="104.98035"
           id="text3567"><tspan
             sodipodi:role="line"
             id="tspan3565"
             style="stroke-width:0.264583"
             x="62.548946"
             y="104.98035">6/9/1969</tspan></text>
      </g>
      <rect
         style="fill:#f5f5f5;fill-opacity:1;stroke:#000000;stroke-width:0.665001"
         id="rect3577"
         width="80.229858"
         height="13.233128"
         x="60.778107"
         y="138.9492" />
      <text
         xml:space="preserve"
         style="font-size:4.23333px;line-height:1.25;font-family:sans-serif;stroke-width:0.264583"
         x="60.187374"
         y="136.67157"
         id="text3581"><tspan
           sodipodi:role="line"
           id="tspan3579"
           style="stroke-width:0.264583"
           x="60.187374"
           y="136.67157">Orientation</tspan></text>
    </g>
    <text
       xml:space="preserve"
       transform="scale(0.26458333)"
       id="text3583"
       style="font-size:26.6667px;line-height:1.25;font-family:sans-serif;white-space:pre;shape-inside:url(#rect3585);display:inline" />
    <path
       id="rect3610"
       style="fill:#941e4e;fill-opacity:1;stroke:none;stroke-width:0.665001"
       d="m 82.117239,201.85557 c -2.432269,0 -4.39043,1.95816 -4.39043,4.39043 v 6.66729 c 0,2.43227 1.958161,4.39043 4.39043,4.39043 h 36.004521 c 2.43227,0 4.39043,-1.95816 4.39043,-4.39043 V 206.246 c 0,-2.43227 -1.95816,-4.39043 -4.39043,-4.39043 z m 20.080431,4.44314 c 0.18062,0 0.34469,0.0168 0.49144,0.0506 0.1524,0.0282 0.28188,0.0623 0.38913,0.10181 l -0.19431,0.58446 c -0.0903,-0.0282 -0.19514,-0.0565 -0.31367,-0.0847 -0.11853,-0.0282 -0.23963,-0.0424 -0.3638,-0.0424 -0.24836,0 -0.43445,0.0844 -0.55863,0.25373 -0.11853,0.16369 -0.17828,0.42368 -0.17828,0.77928 v 0.29611 h 1.14308 v 0.57568 h -1.14308 v 3.96254 h -0.74466 v -3.96254 h -0.795819 v -0.34727 l 0.795819,-0.25373 v -0.26252 c 0,-0.58702 0.12948,-1.00742 0.38912,-1.26142 0.25965,-0.25964 0.62081,-0.38964 1.08366,-0.38964 z m 1.61747,0.2372 c 0.11289,0 0.21144,0.0393 0.29611,0.11833 0.0903,0.0734 0.13539,0.19185 0.13539,0.35554 0,0.15804 -0.0451,0.27703 -0.13539,0.35605 -0.0847,0.079 -0.18322,0.11834 -0.29611,0.11834 -0.12417,0 -0.22849,-0.0393 -0.31316,-0.11834 -0.0847,-0.079 -0.12712,-0.19801 -0.12712,-0.35605 0,-0.16369 0.0425,-0.28216 0.12712,-0.35554 0.0847,-0.079 0.18899,-0.11833 0.31316,-0.11833 z m -16.298231,0.11007 c 0.637822,0 1.193466,0.11846 1.667599,0.35553 l -0.304891,0.64337 c -0.186267,-0.0847 -0.394897,-0.16067 -0.626319,-0.22841 -0.225777,-0.0677 -0.474241,-0.1018 -0.745174,-0.1018 -0.649111,0 -1.159673,0.21753 -1.532206,0.65216 -0.372533,0.43462 -0.559139,1.0301 -0.559139,1.78645 0,0.75071 0.172453,1.34619 0.516764,1.78645 0.349956,0.43463 0.872047,0.65164 1.566313,0.65164 0.265289,0 0.516376,-0.0225 0.753442,-0.0677 0.237067,-0.0452 0.468237,-0.10125 0.694015,-0.16898 v 0.66042 c -0.225778,0.0847 -0.459572,0.14653 -0.702283,0.18604 -0.237066,0.0395 -0.522223,0.0594 -0.855245,0.0594 -0.615244,0 -1.128947,-0.12685 -1.540991,-0.38085 -0.412044,-0.254 -0.722365,-0.61568 -0.931209,-1.08417 -0.2032,-0.46849 -0.304891,-1.01889 -0.304891,-1.65106 0,-0.6096 0.110079,-1.14533 0.330212,-1.60818 0.225778,-0.46848 0.556015,-0.83279 0.990637,-1.09244 0.434622,-0.26528 0.962478,-0.3979 1.583366,-0.3979 z m 4.504118,1.50688 c 0.412044,0 0.773211,0.0933 1.083655,0.27957 0.316088,0.18062 0.561411,0.44586 0.736389,0.79582 0.180622,0.34431 0.271301,0.76785 0.271301,1.2702 0,0.75071 -0.191853,1.33204 -0.575675,1.74408 -0.378178,0.41205 -0.891881,0.61805 -1.540991,0.61805 -0.400756,0 -0.759298,-0.0907 -1.075387,-0.2713 -0.310444,-0.18626 -0.555767,-0.45413 -0.736389,-0.80408 -0.180622,-0.3556 -0.271301,-0.78439 -0.271301,-1.28675 0,-0.75071 0.189229,-1.32941 0.567407,-1.73581 0.378177,-0.4064 0.89188,-0.60978 1.540991,-0.60978 z m 5.45238,0 c 0.541867,0 0.951255,0.13262 1.227832,0.39791 0.276578,0.25964 0.414962,0.68318 0.414962,1.27021 v 2.95485 h -0.736906 v -2.90421 c 0,-0.72813 -0.338626,-1.09192 -1.015958,-1.09192 -0.502356,0 -0.84937,0.141 -1.041281,0.42323 -0.191911,0.28222 -0.287837,0.68847 -0.287837,1.21904 v 2.35386 h -0.745174 v -4.53822 h 0.600996 l 0.110071,0.61805 h 0.04237 c 0.146755,-0.23707 0.350138,-0.41214 0.609782,-0.52503 0.259644,-0.11854 0.533272,-0.17777 0.821138,-0.17777 z m 10.261913,0 c 0.0847,0 0.17483,0.006 0.27078,0.017 0.1016,0.006 0.18914,0.0172 0.26252,0.0341 l -0.093,0.68575 c -0.0734,-0.0169 -0.15567,-0.0311 -0.24598,-0.0424 -0.0847,-0.0113 -0.16644,-0.017 -0.24546,-0.017 -0.23142,0 -0.44844,0.065 -0.65164,0.19482 -0.2032,0.12418 -0.36727,0.30188 -0.49144,0.5333 -0.11854,0.22578 -0.17777,0.49102 -0.17777,0.79582 v 2.42155 h -0.74466 v -4.53822 h 0.60927 l 0.0847,0.82992 h 0.0341 c 0.14676,-0.24835 0.33547,-0.46275 0.56689,-0.64337 0.23143,-0.18062 0.50557,-0.2713 0.82166,-0.2713 z m 3.4711,0 c 0.7112,0 1.17406,0.25423 1.38855,0.76223 h 0.0424 c 0.1524,-0.25965 0.35841,-0.4515 0.61805,-0.57568 0.26529,-0.12417 0.54469,-0.18655 0.8382,-0.18655 0.51364,0 0.89735,0.13262 1.15135,0.39791 0.254,0.25964 0.38085,0.68318 0.38085,1.27021 v 2.95485 h -0.73639 v -2.92126 c 0,-0.71685 -0.30769,-1.07487 -0.92294,-1.07487 -0.44026,0 -0.75635,0.12685 -0.94826,0.38085 -0.18627,0.254 -0.27905,0.62356 -0.27905,1.10898 v 2.5063 h -0.73691 v -2.92126 c 0,-0.71685 -0.31032,-1.07487 -0.93121,-1.07487 -0.4572,0 -0.77328,0.141 -0.94826,0.42323 -0.17498,0.28222 -0.26252,0.68847 -0.26252,1.21904 v 2.35386 h -0.74517 v -4.53822 h 0.601 l 0.11007,0.61805 h 0.0424 c 0.14111,-0.23707 0.33034,-0.41214 0.56741,-0.52503 0.24271,-0.11854 0.49956,-0.17777 0.77049,-0.17777 z m -7.77213,0.0847 h 0.74466 v 4.53822 h -0.74466 z m -11.430316,0.54209 c -0.462844,0 -0.798846,0.15202 -1.007691,0.45682 -0.208844,0.3048 -0.313159,0.72571 -0.313159,1.26193 0,0.53623 0.104315,0.96239 0.313159,1.27848 0.214489,0.31044 0.553632,0.4656 1.016476,0.4656 0.457199,0 0.792685,-0.15516 1.007173,-0.4656 0.214489,-0.31609 0.321945,-0.74225 0.321945,-1.27848 0,-0.53622 -0.107456,-0.95713 -0.321945,-1.26193 -0.214488,-0.3048 -0.553114,-0.45682 -1.015958,-0.45682 z" />
    <text
       xml:space="preserve"
       style="font-size:7.05556px;line-height:1.25;font-family:sans-serif;stroke-width:0.264583"
       x="63.010414"
       y="225.94579"
       id="text8228"><tspan
         sodipodi:role="line"
         id="tspan8226"
         style="stroke-width:0.264583"
         x="63.010414"
         y="225.94579">#941e4eff</tspan></text>
  </g>
</svg>
